<?xml version="1.0"?>
<svg width="550" height="550" xmlns="http://www.w3.org/2000/svg" xmlns:svg="http://www.w3.org/2000/svg" preserveAspectRatio="xMidYMid meet">
 <metadata>Created by potrace 1.15, written by Peter Selinger 2001-2017</metadata>
 <g class="layer">
  <title>Layer 1</title>
  <g fill="#000000" id="svg_1" transform="translate(0 550) scale(0.1 -0.1)">
   <path d="m2565,5300c-168,-12 -507,-79 -600,-119c-11,-5 -49,-19 -85,-32c-79,-27 -268,-120 -326,-160c-23,-16 -46,-29 -49,-29c-15,0 -193,-132 -240,-177c-155,-150 -297,-344 -379,-518c-77,-161 -158,-450 -181,-645c-4,-30 -8,-129 -11,-220l-4,-165l-29,-27c-35,-32 -120,-140 -148,-189c-49,-85 -66,-158 -67,-284c-1,-104 3,-129 24,-185c101,-271 317,-431 588,-436c99,-2 132,-11 132,-38c0,-6 7,-24 15,-40c14,-27 14,-31 -3,-50c-47,-52 -52,-125 -25,-398c9,-98 15,-180 12,-182c-2,-3 -16,-7 -31,-10c-59,-10 -98,-50 -117,-122c-10,-38 -14,-42 -52,-48c-28,-4 -53,-18 -74,-39l-33,-33l-68,77c-80,94 -117,114 -188,105c-55,-6 -77,-25 -97,-84c-18,-53 -4,-90 71,-192c39,-52 73,-102 77,-110c4,-8 9,-17 13,-20c23,-19 122,-171 162,-248c53,-102 116,-191 173,-241c35,-31 36,-32 30,-89c-5,-47 -1,-134 18,-327c2,-16 11,-21 46,-23l44,-3l-9,93c-5,51 -9,136 -9,188l0,95l60,1c83,1 131,11 188,40c27,14 50,24 52,22c2,-2 8,-37 13,-78c13,-96 37,-218 51,-262c6,-18 14,-46 19,-63c8,-27 13,-30 55,-33l47,-3l-14,38c-17,43 -56,190 -56,210c0,19 110,295 167,416c71,153 142,267 189,302c22,17 67,39 100,48c32,10 72,22 89,27c16,5 32,6 36,2c3,-4 3,-95 -1,-202c-9,-227 -25,-305 -81,-396c-70,-115 -91,-166 -97,-229c-4,-50 -8,-63 -26,-71c-14,-6 -28,-30 -42,-74l-21,-65l115,-3c63,-1 117,0 120,2c2,3 8,57 12,120c5,63 14,126 22,140c7,13 31,55 53,93c23,37 49,89 58,114c28,74 47,231 47,391c0,114 3,148 13,148c8,0 20,-30 31,-77c24,-102 45,-141 107,-197c186,-167 501,-164 677,7c53,52 102,153 117,240c13,80 22,29 28,-160c8,-266 22,-331 95,-451c31,-51 62,-103 69,-115c10,-20 21,-123 22,-219l1,-38l81,0l82,0l-6,133c-6,149 -11,167 -86,279c-83,125 -83,125 -88,376l-6,222l40,-14c156,-55 215,-130 338,-431c49,-119 108,-300 145,-443c17,-64 32,-117 34,-119c2,-2 33,-3 68,-1l65,3l-33,132c-50,200 -120,404 -212,613c-61,139 -83,173 -161,250c-62,61 -102,85 -204,122l-38,14l38,22c21,11 74,40 118,63c109,56 265,162 333,223c66,60 174,222 237,352c25,52 45,99 45,105c0,6 6,25 14,42c49,109 66,149 66,157c0,6 3,10 8,11c4,0 54,1 112,3c275,6 489,164 590,436c21,56 25,81 24,185c-1,126 -18,197 -68,284c-38,68 -118,166 -163,200l-43,33l-1,72c-2,345 -88,720 -225,984c-129,249 -303,454 -514,605c-229,164 -599,308 -950,371c-102,19 -383,27 -535,16zm218,-1111c32,-31 142,-81 190,-86c36,-4 50,0 96,31c29,20 54,36 56,36c1,0 29,-16 61,-36c50,-30 66,-35 103,-31c23,3 57,15 74,27c24,18 34,21 46,12c73,-53 138,-65 192,-36c23,12 34,13 44,4c8,-7 40,-20 71,-29c43,-14 64,-16 93,-8c33,9 42,7 68,-11c17,-12 48,-27 69,-34l39,-13l5,-185c3,-121 9,-193 17,-207c17,-28 62,-60 99,-69c71,-17 169,-98 192,-159c17,-43 30,-113 46,-242c17,-132 34,-164 99,-185c41,-13 42,-14 39,-53c-11,-121 -127,-456 -249,-715c-27,-58 -62,-136 -77,-175c-88,-222 -174,-374 -266,-465c-74,-73 -189,-153 -330,-228c-52,-28 -120,-66 -151,-84c-48,-29 -113,-57 -284,-123c-116,-45 -163,-57 -261,-67c-178,-18 -306,0 -479,67c-171,66 -236,94 -284,123c-31,18 -99,56 -151,84c-301,160 -453,316 -481,491c-12,77 -41,139 -80,171c-17,14 -41,50 -54,80c-13,29 -43,94 -65,142c-112,237 -222,555 -244,701c-5,38 -4,42 22,51c15,6 38,21 53,35c23,22 27,38 43,178c20,177 41,265 69,296c24,27 86,57 153,72c79,19 96,43 104,148c11,124 31,256 41,269c5,6 29,11 54,12c50,0 102,28 135,70l21,26l42,-21c23,-12 53,-24 67,-26c40,-9 96,17 136,62c41,46 60,50 93,22c25,-22 99,-35 144,-26c18,4 60,27 94,52l63,44l22,-21c35,-33 114,-70 148,-70c39,0 150,53 187,89c35,35 39,36 66,10zm-1931,-1098c15,-29 30,-78 33,-109c15,-141 86,-387 171,-602c19,-47 39,-93 44,-102c6,-10 10,-21 10,-24c0,-5 -131,0 -188,8c-7,1 -49,22 -95,48c-94,54 -157,123 -210,230c-31,63 -32,69 -31,195c0,117 2,135 25,183c44,95 172,239 203,229c6,-2 23,-27 38,-56zm3889,32c48,-37 129,-142 158,-205c22,-48 25,-66 25,-183c1,-127 0,-132 -31,-195c-53,-107 -116,-176 -210,-230c-46,-26 -88,-47 -95,-48c-57,-8 -188,-13 -188,-8c0,3 4,14 10,24c33,59 123,310 163,457c40,149 46,178 53,276c3,52 13,104 20,117c19,30 53,28 95,-5zm-3407,-1164c42,-20 73,-93 91,-219c39,-265 44,-298 54,-355c16,-92 15,-115 -9,-115c-11,0 -20,-4 -20,-9c0,-11 25,-21 49,-21c17,0 101,-110 101,-132c0,-4 -10,-8 -23,-8c-12,0 -39,-14 -60,-31c-21,-17 -39,-30 -41,-28c-1,2 -34,75 -71,162c-65,148 -71,158 -107,175c-21,9 -40,24 -42,32c-10,29 -28,271 -29,390l-2,122l28,24c31,27 45,29 81,13zm242,-544c52,-46 217,-151 321,-205c56,-29 100,-57 97,-62c-3,-5 -11,-8 -17,-6c-26,4 -132,-56 -172,-98l-43,-44l-18,28c-9,15 -30,43 -46,62c-93,116 -140,195 -149,250c-4,30 -11,65 -15,78c-8,29 6,28 42,-3zm-303,-70c27,-13 40,-33 76,-118c25,-56 57,-129 73,-162l28,-59l-70,-71l-71,-70l-19,25c-11,14 -53,93 -94,176c-41,83 -81,154 -90,157c-41,16 4,120 57,130c46,9 80,6 110,-8zm-595,-76c29,-10 202,-198 202,-220c0,-12 172,-283 208,-328c22,-27 36,-34 75,-38c42,-5 49,-10 69,-44c17,-30 31,-42 62,-50c68,-18 106,-7 192,57c44,33 81,61 84,64c18,18 100,70 100,63c0,-33 -144,-194 -230,-258c-202,-151 -375,-98 -515,158c-30,55 -36,75 -32,103c5,31 4,34 -13,29c-13,-4 -24,3 -41,27c-25,37 -54,77 -168,233c-67,90 -81,116 -81,147c0,27 6,41 22,52c27,19 27,19 66,5zm454,-199c38,-63 82,-143 99,-176l31,-62l-33,-57c-30,-54 -34,-57 -63,-51c-38,7 -52,24 -140,163c-38,59 -77,120 -87,134c-29,42 -33,76 -15,105c24,36 76,65 111,62c26,-3 37,-16 97,-118zm555,-42c53,-55 69,-125 36,-153c-10,-8 -76,-57 -148,-110c-71,-53 -138,-103 -148,-111c-71,-59 -178,-25 -177,55c1,40 13,55 171,209c144,139 148,142 191,142c37,0 49,-5 75,-32zm1383,-81c0,-7 -13,-34 -29,-59c-76,-119 -309,-156 -436,-68c-57,40 -95,80 -95,102c0,17 5,18 53,11c90,-14 376,-6 427,11c57,19 80,20 80,3z" fill="#1289ea" id="svg_2"/>
   <path d="m1589,3465c-59,-21 -219,-135 -219,-155c0,-28 22,-30 117,-14c156,28 240,4 519,-148l62,-33l-137,0c-138,0 -171,-6 -271,-52c-59,-27 -220,-154 -220,-174c0,-23 104,-91 134,-87c28,4 32,39 6,63c-11,10 -20,24 -20,30c0,12 68,65 83,65c4,0 7,-19 7,-42c0,-108 129,-183 255,-148c33,9 57,26 86,59c40,44 41,48 37,104c-5,70 7,74 63,18c31,-31 39,-46 39,-75c0,-40 21,-57 49,-39c17,11 29,56 23,89c-5,28 -84,111 -122,127c-8,4 1,4 20,0c19,-4 49,-7 65,-8c17,-1 64,-23 105,-48c136,-85 193,-47 144,96c-17,52 -45,76 -144,124c-36,17 -157,78 -270,134c-262,130 -323,147 -411,114z" fill="#1289ea" id="svg_3"/>
   <path d="m3750,3466c-65,-18 -596,-284 -630,-316c-30,-28 -50,-83 -50,-140c0,-75 48,-79 157,-14c45,26 93,47 113,48c19,2 46,6 60,11c19,5 15,0 -16,-23c-73,-53 -102,-110 -86,-167c7,-25 14,-30 38,-30c27,0 29,3 35,42c6,45 35,85 80,108l25,14l-4,-60c-4,-52 -1,-64 23,-98c70,-103 236,-107 320,-8c28,33 35,49 35,84c0,24 3,43 6,43c12,0 84,-55 84,-65c0,-6 -9,-18 -20,-28c-41,-35 -14,-83 33,-58c78,40 107,64 107,87c0,15 -139,118 -213,159c-96,51 -182,69 -311,62c-59,-3 -106,-4 -105,-3c7,6 185,100 252,133c37,18 102,41 144,49c68,14 88,15 168,3c84,-13 123,-14 133,-5c10,11 -11,44 -40,61c-18,10 -56,36 -85,58c-84,62 -161,79 -253,53z" fill="#1289ea" id="svg_4"/>
   <path d="m2470,2414c-58,-50 -76,-133 -40,-191c23,-38 59,-59 122,-68c25,-4 61,-17 79,-28l34,-22l-285,-5l-285,-5l-57,-27c-64,-31 -119,-90 -154,-163c-34,-72 -34,-182 1,-251c36,-72 85,-125 146,-159l54,-30l670,0l670,0l54,30c61,34 110,87 146,159c35,69 35,179 1,251c-35,73 -90,132 -154,163l-57,27l-280,3c-325,4 -369,16 -190,52c98,20 161,103 141,185c-9,37 -74,105 -100,105c-22,0 -46,-17 -46,-32c0,-5 16,-24 35,-44c47,-46 47,-84 2,-118c-24,-19 -46,-26 -77,-26c-26,0 -56,-8 -78,-22c-43,-27 -107,-27 -159,0c-21,11 -63,25 -93,32c-100,23 -114,57 -50,122c42,44 47,57 28,76c-19,19 -44,14 -78,-14z" fill="#1289ea" id="svg_5"/>
  </g>
 </g>
</svg>